<?xml version="1.0" standalone="no"?>
<!DOCTYPE svg PUBLIC "-//W3C//DTD SVG 20010904//EN"
 "http://www.w3.org/TR/2001/REC-SVG-20010904/DTD/svg10.dtd">
<svg version="1.0" xmlns="http://www.w3.org/2000/svg"
 width="500.000000pt" height="500.000000pt" viewBox="0 0 500.000000 500.000000"
 preserveAspectRatio="xMidYMid meet">

<g transform="translate(0.000000,500.000000) scale(0.100000,-0.100000)"
fill="#000000" stroke="none">
<path d="M210 3618 c0 -7 12 -67 26 -133 14 -66 40 -192 59 -280 80 -383 198
-939 220 -1040 13 -60 47 -220 75 -355 28 -135 53 -250 55 -256 2 -6 45 10
102 37 257 123 538 181 848 174 288 -7 586 -71 838 -182 l78 -34 132 50 c506
190 967 213 1407 70 90 -30 227 -92 273 -124 12 -8 24 -15 28 -15 3 0 11 26
18 58 7 31 37 170 67 307 30 138 71 322 90 410 19 88 43 198 54 245 11 47 35
159 55 250 20 91 44 203 55 250 11 47 35 159 55 250 20 91 44 200 54 242 10
42 16 80 13 83 -3 3 -1040 5 -2304 5 -1832 0 -2298 -3 -2298 -12z m3360 -545
l-1 -88 -47 -54 c-29 -32 -54 -52 -64 -50 -15 4 -15 9 3 59 10 30 19 56 19 57
0 2 -18 3 -40 3 l-40 0 0 80 0 80 85 0 85 0 0 -87z m-1603 -28 c150 -45 253
-184 253 -343 l0 -52 -250 0 c-278 0 -264 4 -234 -70 22 -54 66 -80 135 -80
60 0 118 28 126 61 5 17 15 19 115 19 l111 0 -7 -32 c-16 -82 -105 -172 -194
-198 -20 -6 -81 -14 -134 -17 -222 -14 -369 60 -429 216 -31 78 -31 213 -1
292 39 98 119 172 225 204 59 19 222 19 284 0z m2114 -5 c77 -23 135 -69 160
-124 30 -66 30 -66 -81 -66 -81 0 -102 3 -107 15 -9 26 -59 45 -113 45 -63 0
-90 -13 -90 -45 0 -29 42 -45 179 -70 96 -16 172 -48 203 -82 27 -30 48 -89
48 -136 0 -59 -41 -138 -88 -170 -74 -52 -115 -61 -277 -61 -132 0 -156 2
-196 21 -61 28 -115 83 -128 130 -21 75 -24 73 98 73 108 0 109 0 115 -25 9
-34 45 -56 98 -57 77 -1 107 19 93 62 -7 23 -18 27 -137 50 -203 39 -268 93
-268 223 0 79 35 140 103 180 97 57 271 74 388 37z m-1618 -30 c23 -46 106
-230 137 -302 27 -63 35 -69 45 -37 4 11 26 62 50 112 23 51 61 131 83 180
l41 87 105 0 c58 0 106 -2 106 -5 0 -4 -109 -235 -260 -552 l-69 -143 -108 0
-108 0 -24 53 c-13 28 -89 182 -168 341 -78 159 -143 293 -143 298 0 5 66 7
147 6 l148 -3 18 -35z m867 -310 l0 -350 -130 0 -130 0 0 350 0 350 130 0 130
0 0 -350z m-2300 85 l0 -255 198 -2 197 -3 0 -85 0 -85 -327 -3 -328 -2 0 345
0 345 130 0 130 0 0 -255z"/>
<path d="M1778 2896 c-19 -14 -48 -75 -48 -101 0 -12 17 -15 101 -15 l101 0
-7 33 c-10 45 -31 83 -50 91 -28 10 -79 6 -97 -8z"/>
<path d="M4082 1545 c-60 -50 -50 -145 19 -180 80 -42 173 38 148 128 -12 46
-40 68 -92 74 -36 4 -48 1 -75 -22z m129 -14 c62 -62 23 -161 -63 -161 -56 0
-88 34 -88 94 0 37 5 48 31 70 41 35 83 34 120 -3z"/>
<path d="M4100 1461 c0 -34 4 -61 10 -61 6 0 10 11 10 25 0 33 25 33 46 0 9
-14 19 -24 21 -21 3 3 -2 15 -11 27 -14 20 -14 23 2 35 26 20 3 48 -42 52
l-36 3 0 -60z m68 27 c3 -13 -3 -18 -22 -18 -20 0 -26 5 -26 21 0 15 5 20 22
17 13 -2 24 -11 26 -20z"/>
</g>
</svg>
